# xmcd
#
# Track frame offsets:
#  150
#  11699
#  24167
#  38001
#  49717
#  64972
#  81787
#  92639
#  104857
#  115124
#  126561
#  139430
#  151564
#  162277
#  170928
#  182726
#  191154
#  201588
#  215059
#  223752
#  233657
#  243592
#  260184
#
# Disc length: 4109 seconds
#
# Revision: 0
# Processed by: cddbd v1.5.2PL0 Copyright (c) Steve Scherf et al.
# Submitted via: AltoMP3_Maker 3.0
#
DISCID=60100b17
DTITLE=Don Bowman - Very Funny Stuff
DYEAR=1900
DGENRE=
TTITLE0=(Chit Akins) Make Me A Star
TTITLE1=Wild Wood Weed
TTITLE2=Dear Fred
TTITLE3=I Get The Feeling We're Through
TTITLE4=Friends With Old Faces
TTITLE5=Greenback Dollar
TTITLE6=She Thinks I Don't Care
TTITLE7=Poor Old Ugly Gladys Jones
TTITLE8=Power Tool Song
TTITLE9=Surely Not
TTITLE10=Willon And Waylee
TTITLE11=Boll Weevil Airlines
TTITLE12=More Than Me
TTITLE13=Kansas City Star
TTITLE14=Freddy Four-Toes
TTITLE15=Dear Sister
TTITLE16=How Come It Is
TTITLE17=Coin Machine Song
TTITLE18=This Just Ain't Your Day
TTITLE19=John's Back In Town
TTITLE20=Harland Howard Write Me A Hit
TTITLE21=Hello Dj (Bleeped Version)
TTITLE22="Live" On Stage
EXTD=
EXTT0=
EXTT1=
EXTT2=
EXTT3=
EXTT4=
EXTT5=
EXTT6=
EXTT7=
EXTT8=
EXTT9=
EXTT10=
EXTT11=
EXTT12=
EXTT13=
EXTT14=
EXTT15=
EXTT16=
EXTT17=
EXTT18=
EXTT19=
EXTT20=
EXTT21=
EXTT22=
PLAYORDER=
